<?xml version="1.0" encoding="UTF-8" standalone="no"?>
<!-- Generator: Adobe Illustrator 19.0.0, SVG Export Plug-In . SVG Version: 6.00 Build 0)  -->

<svg
   version="1.1"
   id="Capa_1"
   x="0px"
   y="0px"
   viewBox="0 0 256 256"
   xml:space="preserve"
   sodipodi:docname="logo.svg"
   width="256"
   height="256"
   inkscape:version="1.4.2 (ebf0e940d0, 2025-05-08)"
   xmlns:inkscape="http://www.inkscape.org/namespaces/inkscape"
   xmlns:sodipodi="http://sodipodi.sourceforge.net/DTD/sodipodi-0.dtd"
   xmlns="http://www.w3.org/2000/svg"
   xmlns:svg="http://www.w3.org/2000/svg"><defs
   id="defs32" /><sodipodi:namedview
   id="namedview32"
   pagecolor="#ffffff"
   bordercolor="#000000"
   borderopacity="0.25"
   inkscape:showpageshadow="2"
   inkscape:pageopacity="0.0"
   inkscape:pagecheckerboard="0"
   inkscape:deskcolor="#d1d1d1"
   inkscape:zoom="2.2519531"
   inkscape:cx="255.77797"
   inkscape:cy="256"
   inkscape:window-width="3440"
   inkscape:window-height="1371"
   inkscape:window-x="0"
   inkscape:window-y="0"
   inkscape:window-maximized="1"
   inkscape:current-layer="Capa_1" />
<rect
   x="3.75"
   y="29.25"
   style="fill:#7a666c;stroke-width:0.5"
   width="248.5"
   height="25"
   id="rect1" />
<rect
   x="237.25"
   y="29.25"
   style="fill:#6a545a;stroke-width:0.5"
   width="15"
   height="25"
   id="rect2" />
<rect
   x="3.75"
   y="54.25"
   style="fill:#f1ebe0;stroke-width:0.5"
   width="248.5"
   height="170"
   id="rect3" />
<rect
   x="237.25"
   y="54.25"
   style="fill:#e8e1d7;stroke-width:0.5"
   width="15"
   height="170"
   id="rect4" />
<rect
   x="3.75"
   y="29.25"
   style="fill:#ff993b;stroke-width:0.5"
   width="56"
   height="25"
   id="rect5" />
<path
   style="fill:#ff5a51;stroke-width:0.5"
   d="m 175.5,190.25 h -95 c -8.2845,0 -15,-6.7155 -15,-15 v -48 c 0,-8.2845 6.7155,-15 15,-15 h 95 c 8.2845,0 15,6.7155 15,15 v 48 c 0,8.2845 -6.7155,15 -15,15 z"
   id="path5" />
<path
   style="fill:#e75955;stroke-width:0.5"
   d="m 175.5,112.25 h -15 c 8.2845,0 15,6.716 15,15 v 48 c 0,8.284 -6.7155,15 -15,15 h 15 c 8.2845,0 15,-6.716 15,-15 v -48 c 0,-8.284 -6.7155,-15 -15,-15 z"
   id="path6" />
<circle
   style="fill:#a85759;stroke-width:0.5"
   cx="127.99999"
   cy="151.25"
   r="22.5"
   id="circle6" />
<path
   style="fill:#53575d;stroke-width:0.5"
   d="m 128,158.75 c -4.1355,0 -7.5,-3.3645 -7.5,-7.5 0,-4.1355 3.3645,-7.5 7.5,-7.5 4.1355,0 7.5,3.3645 7.5,7.5 0,4.1355 -3.3645,7.5 -7.5,7.5 z"
   id="path7" />
<rect
   x="112.00001"
   y="97.249992"
   style="fill:#ffbd2a;stroke-width:0.5"
   width="32"
   height="15"
   id="rect7" />
<rect
   x="129"
   y="97.249992"
   style="fill:#ff993b;stroke-width:0.5"
   width="15"
   height="15"
   id="rect8" />
<path
   d="M 252.25,25.5 H 59.75 3.75 C 1.679,25.5 0,27.1785 0,29.25 v 0 161 c 0,2.0715 1.679,3.75 3.75,3.75 2.071,0 3.75,-1.6785 3.75,-3.75 V 58 58 h 241 v 4.6875 c 0,2.0715 1.6785,3.75 3.75,3.75 2.0715,0 3.75,-1.6785 3.75,-3.75 V 29.25 v 0 c 0,-2.0715 -1.6785,-3.75 -3.75,-3.75 z M 7.5,50.5 V 33 H 56 v 17.5 z m 56,0 V 33 h 185 v 17.5 z"
   id="path8"
   style="stroke-width:0.5" />
<path
   d="m 252.25,74.9375 c -2.0715,0 -3.75,1.6785 -3.75,3.75 V 220.5 H 7.5 V 207 c 0,-2.0715 -1.679,-3.75 -3.75,-3.75 C 1.679,203.25 0,204.9285 0,207 v 17.25 c 0,2.0715 1.679,3.75 3.75,3.75 h 248.5 c 2.0715,0 3.75,-1.6785 3.75,-3.75 V 78.6875 c 0,-2.0715 -1.6785,-3.75 -3.75,-3.75 z"
   id="path9"
   style="stroke-width:0.5" />
<circle
   cx="18.25"
   cy="41.75"
   r="3.75"
   id="circle9"
   style="stroke-width:0.5" />
<circle
   cx="46.25"
   cy="41.75"
   r="3.75"
   id="circle10"
   style="stroke-width:0.5" />
<circle
   cx="32.25"
   cy="41.75"
   r="3.75"
   id="circle11"
   style="stroke-width:0.5" />
<path
   d="m 61.75,127.25 v 48 c 0,10.339 8.411,18.75 18.75,18.75 h 63.375 c 2.0715,0 3.75,-1.6785 3.75,-3.75 0,-2.0715 -1.6785,-3.75 -3.75,-3.75 H 80.5 c -6.2035,0 -11.25,-5.047 -11.25,-11.25 v -48 C 69.25,121.047 74.2965,116 80.5,116 v 0 h 95 v 0 c 6.203,0 11.25,5.047 11.25,11.25 v 48 c 0,6.203 -5.047,11.25 -11.25,11.25 h -15.375 c -2.0715,0 -3.75,1.6785 -3.75,3.75 0,2.0715 1.6785,3.75 3.75,3.75 H 175.5 c 10.339,0 18.75,-8.411 18.75,-18.75 v -48 c 0,-10.339 -8.411,-18.75 -18.75,-18.75 H 147.75 V 97.25 c 0,-2.0715 -1.6785,-3.75 -3.75,-3.75 h -32 c -2.071,0 -3.75,1.6785 -3.75,3.75 V 108.5 H 80.5 c -10.339,0 -18.75,8.411 -18.75,18.75 z m 54,-26.25 h 24.5 v 7.5 h -24.5 z"
   id="path11"
   style="stroke-width:0.5" />
<path
   d="m 101.75,151.25 c 0,14.474 11.7755,26.25 26.25,26.25 14.474,0 26.25,-11.776 26.25,-26.25 0,-14.474 -11.776,-26.25 -26.25,-26.25 -14.4745,0 -26.25,11.776 -26.25,26.25 z m 45,0 c 0,10.339 -8.411,18.75 -18.75,18.75 -10.339,0 -18.75,-8.411 -18.75,-18.75 0,-10.339 8.411,-18.75 18.75,-18.75 10.339,0 18.75,8.411 18.75,18.75 z"
   id="path12"
   style="stroke-width:0.5" />
<path
   d="m 116.75,151.25 c 0,6.203 5.0465,11.25 11.25,11.25 6.203,0 11.25,-5.047 11.25,-11.25 0,-6.203 -5.047,-11.25 -11.25,-11.25 -6.2035,0 -11.25,5.047 -11.25,11.25 z m 15,0 c 0,2.068 -1.682,3.75 -3.75,3.75 -2.068,0 -3.75,-1.682 -3.75,-3.75 0,-2.068 1.682,-3.75 3.75,-3.75 2.068,0 3.75,1.682 3.75,3.75 z"
   id="path13"
   style="stroke-width:0.5" />
<path
   d="m 131.75,76.114 v -7.1745 c 0,-2.0715 -1.6785,-3.75 -3.75,-3.75 -2.071,0 -3.75,1.6785 -3.75,3.75 v 7.1745 c 0,2.0715 1.679,3.75 3.75,3.75 2.0715,0 3.75,-1.679 3.75,-3.75 z"
   id="path14"
   style="stroke-width:0.5" />
<path
   d="m 110.217,84.6485 c 0.6345,0 1.2775,-0.161 1.867,-0.5 1.795,-1.033 2.413,-3.3255 1.38,-5.1205 l -3.5755,-6.2135 c -1.033,-1.796 -3.3265,-2.413 -5.1205,-1.3805 -1.795,1.033 -2.413,3.3255 -1.38,5.1205 l 3.5755,6.2135 c 0.6935,1.206 1.9555,1.8805 3.2535,1.8805 z"
   id="path15"
   style="stroke-width:0.5" />
<path
   d="m 95.313,97.184 c 0.592,0.3435 1.238,0.506 1.876,0.506 1.294,0 2.552997,-0.6705 3.2485,-1.8705 1.038,-1.792 0.427,-4.0865 -1.365004,-5.1245 L 92.88,87.1075 c -1.7915,-1.0385 -4.0865,-0.427 -5.1245,1.3645 -1.038,1.7915 -0.427,4.0865 1.365,5.1245 z"
   id="path16"
   style="stroke-width:0.5" />
<path
   d="m 158.811,97.599 c 0.638,0 1.2845,-0.163 1.8765,-0.506 l 6.1925,-3.5875 c 1.792,-1.038 2.4035,-3.3325 1.3645,-5.1245 -1.038,-1.792 -3.333,-2.4025 -5.1245,-1.3645 l -6.1925,3.5875 c -1.792,1.038 -2.4035,3.3325 -1.3645,5.1245 0.6955,1.2 1.954,1.8705 3.248,1.8705 z"
   id="path17"
   style="stroke-width:0.5" />
<path
   d="m 145.783,84.491 c 1.298,0 2.56,-0.675 3.254,-1.8805 l 3.575,-6.2135 c 1.0325,-1.795 0.415,-4.0875 -1.3805,-5.1205 -1.7945,-1.0315 -4.0875,-0.4145 -5.1205,1.3805 l -3.575,6.2135 c -1.0325,1.795 -0.415,4.0875 1.3805,5.1205 0.5895,0.339 1.232,0.5 1.8665,0.5 z"
   id="path18"
   style="stroke-width:0.5" />
<g
   id="g18"
   transform="matrix(0.5,0,0,0.5,0,-1.25)">
</g>
<g
   id="g19"
   transform="matrix(0.5,0,0,0.5,0,-1.25)">
</g>
<g
   id="g20"
   transform="matrix(0.5,0,0,0.5,0,-1.25)">
</g>
<g
   id="g21"
   transform="matrix(0.5,0,0,0.5,0,-1.25)">
</g>
<g
   id="g22"
   transform="matrix(0.5,0,0,0.5,0,-1.25)">
</g>
<g
   id="g23"
   transform="matrix(0.5,0,0,0.5,0,-1.25)">
</g>
<g
   id="g24"
   transform="matrix(0.5,0,0,0.5,0,-1.25)">
</g>
<g
   id="g25"
   transform="matrix(0.5,0,0,0.5,0,-1.25)">
</g>
<g
   id="g26"
   transform="matrix(0.5,0,0,0.5,0,-1.25)">
</g>
<g
   id="g27"
   transform="matrix(0.5,0,0,0.5,0,-1.25)">
</g>
<g
   id="g28"
   transform="matrix(0.5,0,0,0.5,0,-1.25)">
</g>
<g
   id="g29"
   transform="matrix(0.5,0,0,0.5,0,-1.25)">
</g>
<g
   id="g30"
   transform="matrix(0.5,0,0,0.5,0,-1.25)">
</g>
<g
   id="g31"
   transform="matrix(0.5,0,0,0.5,0,-1.25)">
</g>
<g
   id="g32"
   transform="matrix(0.5,0,0,0.5,0,-1.25)">
</g>
</svg>
