<?xml version="1.0" encoding="UTF-8" standalone="no"?>
<svg
   height="256pt"
   viewBox="1 -104 256.50048 256"
   width="256pt"
   version="1.1"
   id="svg18"
   sodipodi:docname="logo.svg"
   inkscape:version="1.4.2 (ebf0e940d0, 2025-05-08)"
   xmlns:inkscape="http://www.inkscape.org/namespaces/inkscape"
   xmlns:sodipodi="http://sodipodi.sourceforge.net/DTD/sodipodi-0.dtd"
   xmlns="http://www.w3.org/2000/svg"
   xmlns:svg="http://www.w3.org/2000/svg">
  <defs
     id="defs18" />
  <sodipodi:namedview
     id="namedview18"
     pagecolor="#ffffff"
     bordercolor="#000000"
     borderopacity="0.25"
     inkscape:showpageshadow="2"
     inkscape:pageopacity="0.0"
     inkscape:pagecheckerboard="0"
     inkscape:deskcolor="#d1d1d1"
     inkscape:document-units="pt"
     inkscape:zoom="1.6922701"
     inkscape:cx="340.96213"
     inkscape:cy="340.66667"
     inkscape:window-width="3440"
     inkscape:window-height="1371"
     inkscape:window-x="0"
     inkscape:window-y="0"
     inkscape:window-maximized="1"
     inkscape:current-layer="svg18" />
  <path
     d="M 69.328811,-25.647587 H 34.497086 v -14.199618 c 0,-4.718202 3.825835,-8.544036 8.544037,-8.544036 h 17.743652 c 4.718202,0 8.544036,3.825834 8.544036,8.544036 z m 0,0"
     fill="#6b7d8e"
     id="path1"
     style="stroke-width:0.500979" />
  <path
     d="M 234.48547,65.616651 H 172.31518 V -5.4283985 h 62.17029 c 10.08416,0 18.25833,8.1761305 18.25833,18.2602835 v 34.526437 c 0,10.084159 -8.17417,18.258329 -18.25833,18.258329 z m 0,0"
     fill="#b0f0ef"
     id="path2"
     style="stroke-width:0.500979" />
  <path
     d="m 234.48547,65.616651 c 10.08416,0 18.25833,-8.17417 18.25833,-18.258329 l -7.93738,-7.317027 c -5.3914,-4.972606 -13.66929,-5.066539 -19.17418,-0.217221 l -13.10178,11.542088 -1.96868,14.250489 z m 0,0"
     fill="#29ce69"
     id="path3"
     style="stroke-width:0.500979" />
  <path
     d="m 174.10188,39.58337 11.03131,-9.915858 c 5.76126,-5.180042 14.77105,-4.064581 19.0959,2.363994 l 22.59884,33.587105 h -54.51275 z m 0,0"
     fill="#73da8c"
     id="path4"
     style="stroke-width:0.500979" />
  <path
     d="m 231.65181,17.477681 c 0,4.129162 -3.34639,7.475543 -7.47555,7.475543 -4.12916,0 -7.4775,-3.346381 -7.4775,-7.475543 0,-4.129161 3.34834,-7.477499 7.4775,-7.477499 4.12916,0 7.47555,3.348338 7.47555,7.477499 z m 0,0"
     fill="#ffaa75"
     id="path5"
     style="stroke-width:0.500979" />
  <path
     d="M 159.83572,95.614719 H 31.587104 C 16.217232,95.614719 3.7573409,83.15483 3.7573409,67.784951 V -7.5947404 c 0,-15.3698706 12.4598911,-27.8297616 27.8297631,-27.8297616 H 159.83572 c 15.36987,0 27.82976,12.459891 27.82976,27.8297616 V 67.784951 c 0,15.369879 -12.45989,27.829768 -27.82976,27.829768 z m 0,0"
     fill="#a4e7ff"
     id="path6"
     style="stroke-width:0.500979" />
  <path
     d="M 36.295522,67.784951 V -7.5947404 c 0,-15.3698706 12.459891,-27.8297616 27.829763,-27.8297616 H 31.587104 c -15.369872,0 -27.8297631,12.459891 -27.8297631,27.8297616 V 67.784951 c 0,15.369879 12.4598911,27.829768 27.8297631,27.829768 h 32.538181 c -15.369872,0 -27.829763,-12.459889 -27.829763,-27.829768 z m 0,0"
     fill="#5ad6ff"
     id="path7"
     style="stroke-width:0.500979" />
  <path
     d="M 3.7573409,8.8044866 H 187.66548 V 28.524655 H 3.7573409 Z m 0,0"
     fill="#ffb3c2"
     id="path8"
     style="stroke-width:0.500979" />
  <path
     d="M 3.7573409,8.8044866 H 36.295522 V 28.524655 H 3.7573409 Z m 0,0"
     fill="#ff899f"
     id="path9"
     style="stroke-width:0.500979" />
  <path
     d="M 3.7573409,28.526611 H 187.66548 V 48.246782 H 3.7573409 Z m 0,0"
     fill="#fcf5af"
     id="path10"
     style="stroke-width:0.500979" />
  <path
     d="M 3.7573409,28.526611 H 36.295522 V 48.246782 H 3.7573409 Z m 0,0"
     fill="#f4e74d"
     id="path11"
     style="stroke-width:0.500979" />
  <path
     d="m 137.39148,30.094127 c 0,23.019585 -18.66147,41.681044 -41.67909,41.681044 -23.019585,0 -41.681045,-18.661459 -41.681045,-41.681044 0,-23.0195823 18.66146,-41.679084 41.681045,-41.679084 23.01762,0 41.67909,18.6595017 41.67909,41.679084 z m 0,0"
     fill="#8697a6"
     id="path12"
     style="stroke-width:0.500979" />
  <path
     d="m 122.09401,30.094127 c 0,14.571437 -11.81214,26.383575 -26.38162,26.383575 -14.571438,0 -26.383579,-11.812138 -26.383579,-26.383575 0,-14.56948 11.812141,-26.3816201 26.383579,-26.3816201 14.56948,0 26.38162,11.8121401 26.38162,26.3816201 z m 0,0"
     fill="#6b7d8e"
     id="path13"
     style="stroke-width:0.500979" />
  <path
     d="m 169.63807,-12.555604 c 0,4.4579286 -3.61252,8.0704544 -8.07046,8.0704544 -4.45597,0 -8.07045,-3.6125258 -8.07045,-8.0704544 0,-4.457928 3.61448,-8.070455 8.07045,-8.070455 4.45794,0 8.07046,3.612527 8.07046,8.070455 z m 0,0"
     fill="#fffcdc"
     id="path14"
     style="stroke-width:0.500979" />
  <path
     d="M 234.48547,-9.1857393 H 191.38173 C 190.55198,-25.866766 176.72027,-39.181842 159.83768,-39.181842 H 73.086152 c 0,0 0.405088,-12.96674 -12.301377,-12.96674 H 43.041123 c -12.908031,0 -12.301377,12.988266 -12.301377,12.988266 C 13.714294,-38.708261 0,-24.727822 0,-7.5947404 V 67.784951 C 0,85.20179 14.170263,99.372059 31.587104,99.372059 H 159.83572 c 17.41684,0 31.5871,-14.170269 31.5871,-31.587108 V 30.442463 c 3.591,-0.911938 7.5323,0.48141 9.68885,3.684935 l 18.6595,27.731913 h -16.15069 c -2.07436,0 -3.75734,1.68298 -3.75734,3.75734 0,2.07633 1.68298,3.75734 3.75734,3.75734 h 30.86499 c 12.13895,0 22.01568,-9.87476 22.01568,-22.015669 V 12.831885 c 0,-12.14090591 -9.87673,-22.0176243 -22.01568,-22.0176243 z M 50.587117,24.769271 H 7.5146819 V 12.561827 H 53.794555 c -1.608611,3.831704 -2.70646,7.929555 -3.207438,12.207444 z m -0.260275,7.514681 c 0.203522,4.244621 0.990216,8.340515 2.285716,12.205486 H 7.5146819 V 32.283952 Z m 7.461844,-2.189825 c 0,-20.9099925 17.011754,-37.9217444 37.923704,-37.9217444 20.90999,0 37.92174,17.0117519 37.92174,37.9217444 0,20.911945 -17.01175,37.923704 -37.92174,37.923704 -20.91195,0 -37.923704,-17.011759 -37.923704,-37.923704 z m 83.047024,-5.324856 c -0.50294,-4.277889 -1.59883,-8.37574 -3.20744,-12.207444 h 46.27987 v 12.207444 z m 0.26027,7.514681 h 42.81216 v 12.205486 h -45.09787 c 1.29354,-3.864971 2.08219,-7.960865 2.28571,-12.205486 z M 43.041123,-44.6339 h 17.743652 c 4.786696,0 4.786696,5.452058 4.786696,5.452058 H 38.254428 c 0,0 -0.741684,-5.452058 4.786695,-5.452058 z M 31.587104,-31.667162 H 159.83572 c 13.27398,0 24.07242,10.800398 24.07242,24.0724216 V 5.0471458 H 133.60087 C 125.458,-7.2307474 111.51475,-15.342299 95.710433,-15.342299 c -15.804315,0 -29.745616,8.1115516 -37.890436,20.3894448 H 7.5146819 V -7.5947404 c 0,-13.2739806 10.7984421,-24.0724216 24.0724221,-24.0724216 z M 159.83572,91.857369 H 31.587104 c -13.27398,0 -24.0724221,-10.800399 -24.0724221,-24.072418 V 52.004122 H 55.915887 c 7.747559,14.015659 22.681032,23.528388 39.794546,23.528388 17.115467,0 32.048947,-9.512729 39.794547,-23.528388 h 48.40316 v 15.780829 c 0,13.272019 -10.79844,24.072418 -24.07242,24.072418 z m 31.5871,-69.058745 V -1.6710578 h 43.06265 c 7.99609,0 14.50099,6.5068526 14.50099,14.5029428 v 25.95305 c 0,0 -11.64971,-13.831711 -25.83759,-1.780824 l -6.93347,6.109593 -8.86889,-13.180047 c -3.58709,-5.330727 -9.86693,-7.939338 -15.92369,-7.135033 z m 43.06265,39.060687 h -5.65753 l -8.38162,-12.457929 7.67124,-6.759302 c 4.07241,-3.589044 10.15265,-3.516636 14.14287,0.160469 l 6.63993,6.123293 c -0.78474,7.26224 -6.94913,12.933469 -14.41489,12.933469 z m 0,0"
     id="path15"
     style="stroke-width:0.500979" />
  <path
     d="m 224.17626,28.710564 c 6.19571,0 11.23485,-5.039141 11.23485,-11.232883 0,-6.193741 -5.03914,-11.2348403 -11.23485,-11.2348403 -6.19373,0 -11.23287,5.0410993 -11.23287,11.2348403 0,6.193742 5.03914,11.232883 11.23287,11.232883 z m 0,-14.953041 c 2.05089,0 3.72016,1.669277 3.72016,3.720158 0,2.050883 -1.66927,3.718203 -3.72016,3.718203 -2.05087,0 -3.7182,-1.66732 -3.7182,-3.718203 0,-2.050881 1.66733,-3.720158 3.7182,-3.720158 z m 0,0"
     id="path16"
     style="stroke-width:0.500979" />
  <path
     d="m 95.71239,60.235051 c 16.61841,0 30.13896,-13.520557 30.13896,-30.140924 0,-16.618405 -13.52055,-30.13896087 -30.13896,-30.13896087 -5.927597,0 -11.663413,1.71820087 -16.591008,4.97260567 -1.731901,1.1428579 -2.207438,3.4735838 -1.064581,5.2054812 1.144815,1.731901 3.473584,2.207439 5.205483,1.064581 3.694719,-2.4383574 8.000006,-3.7279853 12.450106,-3.7279853 12.47555,0 22.62428,10.1487333 22.62428,22.6262353 0,12.475545 -10.14873,22.624278 -22.62428,22.624278 -12.477504,0 -22.626238,-10.148733 -22.626238,-22.624278 0,-3.056753 0.59687,-6.019573 1.77691,-8.806267 0.808219,-1.911939 -0.08611,-4.115463 -1.998045,-4.92564 -1.911938,-0.806262 -4.115462,0.08611 -4.923682,1.998046 -1.573387,3.718201 -2.369864,7.665365 -2.369864,11.733861 0,16.61841 13.520555,30.138967 30.140919,30.138967 z m 0,0"
     id="path17"
     style="stroke-width:0.500979" />
  <path
     d="m 161.56761,-0.72780782 c 6.52252,0 11.8278,-5.30724468 11.8278,-11.82779618 0,-6.522508 -5.30528,-11.827795 -11.8278,-11.827795 -6.5225,0 -11.82779,5.305287 -11.82779,11.827795 0,6.5225085 5.30725,11.82779618 11.82779,11.82779618 z m 0,-16.14091018 c 2.37966,0 4.31312,1.933465 4.31312,4.313114 0,2.377692 -1.93346,4.3131137 -4.31312,4.3131137 -2.37768,0 -4.31311,-1.9354217 -4.31311,-4.3131137 0,-2.379649 1.93543,-4.313114 4.31311,-4.313114 z m 0,0"
     id="path18"
     style="stroke-width:0.500979" />
</svg>
